<?xml version="1.0" standalone="no"?>
<!DOCTYPE svg PUBLIC "-//W3C//DTD SVG 20010904//EN"
 "http://www.w3.org/TR/2001/REC-SVG-20010904/DTD/svg10.dtd">
<svg version="1.0" xmlns="http://www.w3.org/2000/svg"
 width="500.000000pt" height="500.000000pt" viewBox="0 0 500.000000 500.000000"
 preserveAspectRatio="xMidYMid meet">
<metadata>
Created by potrace 1.13, written by Peter Selinger 2001-2015
</metadata>
<g transform="translate(0.000000,500.000000) scale(0.100000,-0.100000)"
fill="#000000" stroke="none">
<path d="M0 2515 l0 -2005 2500 0 2500 0 0 2005 0 2005 -2500 0 -2500 0 0
-2005z m3814 1510 c35 -88 90 -221 122 -295 79 -189 90 -231 75 -302 -21 -98
-95 -183 -182 -208 -50 -15 -140 -12 -188 5 -61 21 -102 56 -141 121 -32 53
-35 64 -34 133 1 77 8 98 82 261 11 25 39 93 62 152 24 59 46 105 51 102 5 -3
6 2 3 11 -4 8 -2 21 3 28 5 6 23 47 39 89 15 43 32 74 35 70 4 -4 37 -79 73
-167z m-724 -787 c150 -46 269 -148 339 -290 23 -46 46 -107 51 -137 6 -29 10
-181 10 -337 0 -291 6 -353 42 -428 10 -23 16 -32 13 -21 -5 20 -5 20 10 1 8
-11 18 -17 21 -13 4 4 1 15 -7 24 -12 17 -12 17 6 1 18 -17 18 -18 0 -38 -11
-12 -13 -20 -6 -20 7 0 10 -4 6 -9 -3 -5 0 -13 6 -17 8 -4 9 -3 5 4 -4 7 -1
12 6 13 10 0 10 2 1 6 -18 7 -16 20 3 27 10 4 13 2 8 -6 -5 -7 -2 -9 8 -5 10
3 15 0 14 -10 -1 -12 15 -16 74 -19 41 -2 81 -6 87 -9 7 -2 32 2 56 9 27 8 52
10 67 4 12 -5 25 -6 28 -3 3 3 1 5 -5 5 -6 0 -14 7 -17 16 -6 15 -3 14 21 -1
28 -18 28 -18 11 2 -17 18 -17 19 12 17 17 -1 27 2 24 7 -3 5 2 9 10 9 23 0
20 -17 -5 -30 -11 -7 -19 -14 -16 -17 10 -10 47 23 47 42 1 16 4 13 15 -10 7
-16 14 -24 14 -17 1 6 12 12 26 12 14 0 25 5 25 10 0 6 7 10 16 10 8 0 12 -4
9 -10 -3 -5 3 -10 14 -10 11 0 23 5 26 10 9 15 152 13 158 -2 4 -10 8 -9 17 2
9 11 13 12 17 3 6 -15 43 -17 43 -3 0 6 9 10 20 10 11 0 20 -4 20 -9 0 -5 14
-11 30 -13 27 -4 30 -2 30 21 0 21 2 23 10 11 9 -13 11 -13 20 0 8 11 9 5 4
-21 -3 -21 -1 -39 4 -43 6 -3 8 2 5 13 -3 10 2 32 11 47 13 24 15 26 16 9 1
-18 2 -17 15 5 l15 25 -6 -30 c-20 -95 -98 -245 -177 -338 -97 -117 -283 -233
-437 -274 -94 -25 -331 -25 -420 1 -295 84 -518 309 -606 611 -14 49 -18 117
-23 363 l-6 304 -64 -154 c-107 -255 -267 -641 -364 -875 -61 -150 -89 -192
-151 -228 -100 -58 -221 -54 -312 10 -27 19 -45 35 -39 35 5 0 -1 7 -13 16
-14 9 -21 22 -18 31 3 8 1 11 -4 8 -13 -8 -31 40 -24 62 4 12 3 14 -3 6 -11
-16 -38 51 -27 68 4 7 3 9 -3 6 -15 -9 -75 145 -63 157 16 16 11 30 -5 16 -10
-9 -15 -9 -15 -1 0 6 4 11 10 11 5 0 7 8 4 18 -5 13 -4 14 4 3 7 -10 11 -4 16
25 4 22 12 46 17 54 8 11 9 9 4 -10 -5 -19 -4 -22 4 -10 6 8 11 32 11 53 0 20
5 37 10 37 6 0 10 16 10 35 0 18 6 38 13 42 18 11 47 92 47 131 0 25 4 32 20
32 17 0 20 7 20 40 0 54 20 51 21 -2 2 -30 5 -18 12 40 5 45 13 82 16 82 4 0
6 17 5 38 -1 45 5 64 18 56 6 -4 7 2 3 17 -7 20 -6 22 7 12 18 -15 32 -5 17
13 -6 7 -6 15 -1 18 12 7 35 -45 35 -79 0 -14 3 -23 7 -20 4 2 15 -13 25 -35
17 -38 19 -39 35 -23 10 10 16 21 14 25 -7 12 8 38 19 31 6 -4 7 -1 2 6 -10
17 44 143 58 134 6 -4 8 0 4 10 -7 20 22 97 36 94 6 -1 12 7 14 18 3 16 2 17
-6 5 -12 -17 -14 -10 -5 14 9 22 24 10 24 -20 0 -13 5 -24 10 -24 6 0 10 8 8
18 -2 11 3 17 13 16 12 -1 15 5 12 20 l-4 21 10 -21 c7 -17 19 -22 51 -22 26
-1 43 4 46 13 3 8 12 11 20 8 8 -3 11 -9 8 -14 -8 -14 6 -10 22 6 9 8 28 15
43 15 15 0 36 7 47 15 10 8 29 15 42 15 12 0 22 4 22 9 0 5 22 9 49 8 27 -1
47 1 44 6 -2 4 -2 16 2 27 7 21 35 17 35 -6 0 -8 6 -14 13 -14 9 0 8 -3 -2 -9
-7 -5 -11 -15 -9 -22 3 -10 8 -7 17 8 10 20 7 28 -29 67 -26 28 -47 43 -56 39
-9 -3 -14 0 -12 7 6 22 -92 52 -157 48 -64 -4 -159 -43 -148 -61 3 -6 1 -7 -5
-3 -13 8 -54 -33 -46 -46 3 -5 1 -7 -5 -6 -5 2 -17 -6 -25 -17 -21 -25 26 85
61 144 38 65 88 116 162 165 149 99 317 125 481 74z m-2735 -2263 c15 -47 28
-85 29 -85 2 0 16 38 30 85 36 116 52 115 93 -2 l30 -88 27 88 c24 78 40 100
58 82 7 -8 -56 -203 -70 -217 -21 -21 -41 2 -63 71 -13 39 -25 71 -29 71 -3 0
-16 -33 -30 -72 -20 -58 -29 -73 -45 -73 -16 0 -26 19 -56 105 -20 58 -35 108
-32 113 2 4 11 7 18 7 9 0 24 -31 40 -85z m468 70 c1 -6 -27 -11 -65 -13 l-68
-3 0 -39 0 -39 55 -3 c30 -2 55 -7 55 -13 0 -5 -25 -11 -55 -13 -51 -3 -55 -5
-55 -27 0 -24 3 -25 64 -25 64 0 92 -14 65 -31 -8 -5 -48 -8 -89 -7 l-75 3 -3
113 -3 113 86 -3 c47 -2 86 -7 88 -13z m180 -77 c19 -51 37 -102 39 -113 5
-30 -24 -25 -40 8 -11 23 -19 27 -56 27 -39 0 -45 -3 -56 -30 -7 -16 -19 -30
-26 -30 -26 0 -19 28 51 198 9 20 21 32 33 32 15 0 27 -20 55 -92z m267 37 l0
-55 64 0 65 0 3 52 c2 41 7 54 21 56 16 3 17 -6 15 -110 -2 -92 -6 -113 -18
-113 -10 0 -16 13 -18 43 l-3 42 -65 0 -64 0 0 -39 c0 -36 -18 -59 -34 -44 -3
4 -6 55 -6 115 0 101 1 108 20 108 18 0 20 -7 20 -55z m390 40 c0 -12 -14 -15
-70 -15 l-70 0 0 -40 0 -39 57 -3 c81 -4 85 -28 4 -28 -58 0 -61 -1 -61 -25 0
-23 3 -24 68 -27 52 -2 67 -6 67 -18 0 -11 -15 -16 -65 -18 -113 -5 -110 -8
-110 112 0 56 3 106 7 109 3 4 44 7 90 7 67 0 83 -3 83 -15z m198 -1 c29 -20
30 -76 1 -105 l-21 -21 21 -22 c21 -22 27 -47 15 -59 -4 -4 -25 14 -46 38 -27
30 -48 45 -64 45 -21 0 -24 -4 -24 -39 0 -36 -18 -59 -34 -44 -8 9 -8 208 1
216 13 14 128 7 151 -9z m230 -69 c2 -43 8 -85 14 -93 7 -7 26 -12 47 -10 46
4 61 32 61 121 0 53 3 67 15 67 12 0 15 -16 15 -84 0 -100 -4 -112 -41 -131
-53 -28 -118 -13 -138 32 -6 13 -11 60 -11 104 0 71 2 80 18 77 14 -3 17 -16
20 -83z m282 15 c40 -38 77 -70 81 -70 4 0 9 30 11 68 2 52 6 67 18 67 22 0
27 -196 6 -215 -13 -10 -17 -8 -27 13 -6 14 -40 48 -75 76 l-64 52 0 -71 c0
-63 -2 -71 -17 -68 -15 3 -18 17 -21 97 -3 86 1 121 11 121 2 0 37 -31 77 -70z
m341 41 c25 -25 29 -37 29 -81 0 -44 -4 -56 -29 -81 -27 -27 -35 -29 -100 -29
l-71 0 0 110 0 110 71 0 c65 0 73 -2 100 -29z m239 14 c0 -12 -14 -15 -70 -15
l-70 0 0 -40 0 -40 60 0 c47 0 60 -3 60 -15 0 -12 -13 -15 -60 -15 -57 0 -60
-1 -60 -25 0 -23 3 -24 67 -27 42 -2 68 -8 71 -15 3 -10 -19 -13 -87 -13 l-91
0 0 103 c0 57 3 107 7 110 3 4 44 7 90 7 67 0 83 -3 83 -15z m198 -1 c29 -20
31 -88 3 -106 -19 -12 -19 -12 0 -36 20 -27 25 -57 9 -67 -5 -3 -16 7 -24 23
-17 34 -57 62 -86 62 -17 0 -20 -6 -20 -38 0 -45 -8 -56 -27 -41 -14 12 -20
199 -6 212 13 14 128 7 151 -9z m241 3 c17 -21 2 -28 -50 -21 -42 6 -50 3 -73
-19 -53 -53 -20 -137 54 -137 23 0 43 7 53 18 21 23 13 32 -25 32 -18 0 -28 5
-28 15 0 12 13 15 55 15 48 0 55 -3 55 -20 0 -76 -95 -124 -170 -85 -41 21
-60 53 -60 100 1 48 18 83 51 101 32 18 123 18 138 1z m231 -7 c26 -26 25 -60
-1 -93 l-20 -26 22 -30 c13 -18 19 -36 15 -47 -5 -13 -14 -8 -49 30 -30 32
-51 46 -70 46 -23 0 -26 -4 -29 -42 -2 -24 -7 -43 -13 -43 -6 0 -11 46 -13
113 l-3 112 71 0 c57 0 74 -4 90 -20z m241 -8 c24 -21 32 -39 36 -74 5 -41 2
-49 -28 -82 -80 -86 -209 -37 -209 80 0 28 8 44 34 70 30 30 40 34 85 34 41 0
56 -5 82 -28z m99 -39 c0 -89 15 -117 61 -121 21 -2 40 3 47 10 6 8 12 50 14
93 3 67 6 80 21 83 15 3 17 -6 17 -85 -1 -53 -5 -94 -13 -104 -30 -39 -87 -50
-136 -24 -37 19 -41 31 -41 131 0 68 3 84 15 84 12 0 15 -14 15 -67z m290 -3
c40 -38 77 -70 81 -70 5 0 9 32 9 70 0 56 3 70 15 70 12 0 15 -19 15 -108 0
-60 -2 -111 -5 -114 -3 -2 -40 29 -83 70 l-77 74 -5 -73 c-4 -57 -8 -74 -20
-74 -12 0 -16 19 -18 99 -3 91 1 126 11 126 2 0 37 -31 77 -70z m319 56 c58
-31 71 -128 22 -177 -27 -27 -35 -29 -105 -29 l-76 0 0 103 c0 57 3 107 7 110
12 13 124 7 152 -7z"/>
<path d="M2570 950 l0 -80 43 0 c50 0 82 19 91 56 15 59 -28 104 -99 104 l-35
0 0 -80z"/>
<path d="M3725 1005 c-51 -50 -17 -135 54 -135 44 0 68 21 77 68 5 26 1 36
-24 62 -37 37 -74 39 -107 5z"/>
<path d="M4450 950 l0 -80 44 0 c36 0 48 5 65 26 47 59 8 134 -69 134 l-40 0
0 -80z"/>
</g>
</svg>
