<?xml version="1.0" standalone="no"?>
<!DOCTYPE svg PUBLIC "-//W3C//DTD SVG 20010904//EN"
 "http://www.w3.org/TR/2001/REC-SVG-20010904/DTD/svg10.dtd">
<svg version="1.0" xmlns="http://www.w3.org/2000/svg"
 width="500.000000pt" height="500.000000pt" viewBox="0 0 500.000000 500.000000"
 preserveAspectRatio="xMidYMid meet">
<metadata>
Created by potrace 1.13, written by Peter Selinger 2001-2015
</metadata>
<g transform="translate(0.000000,500.000000) scale(0.100000,-0.100000)"
fill="#000000" stroke="none">
<path d="M3809 4058 l-154 -373 0 -90 c0 -81 3 -95 30 -144 43 -77 104 -127
188 -153 219 -66 433 102 415 326 -4 49 -31 124 -138 381 -73 176 -142 344
-154 372 -12 29 -24 53 -27 53 -3 0 -75 -168 -160 -372z"/>
<path d="M259 3347 c-138 -39 -230 -149 -245 -293 -5 -51 -2 -73 24 -144 24
-69 395 -967 599 -1452 38 -92 52 -115 99 -157 67 -61 133 -86 231 -85 62 0
81 5 139 34 82 42 129 98 173 209 16 42 87 213 157 381 69 168 129 314 133
324 8 21 2 35 222 -498 102 -246 131 -307 165 -345 122 -136 343 -142 472 -13
47 47 32 15 270 587 110 264 230 554 268 644 l69 163 6 -333 c5 -267 9 -347
23 -399 50 -193 131 -336 265 -471 129 -129 286 -218 457 -261 128 -31 324
-31 449 1 172 44 316 125 449 251 141 135 236 308 277 505 17 81 19 141 19
600 l0 510 -29 60 c-56 119 -162 188 -291 189 -131 1 -234 -63 -292 -182 l-33
-67 -5 -505 -5 -505 -24 -50 c-109 -221 -416 -247 -554 -47 -59 84 -61 97 -67
482 -6 328 -8 360 -28 420 -64 193 -218 348 -418 422 -49 18 -82 21 -189 22
-118 1 -138 -2 -213 -28 -102 -35 -214 -108 -282 -184 -62 -69 -124 -193 -250
-502 -51 -124 -95 -228 -99 -233 -4 -4 -22 30 -41 75 -101 249 -284 688 -300
718 -27 54 -99 115 -164 139 -156 58 -329 -4 -403 -145 -17 -32 -97 -221 -178
-419 -82 -198 -151 -363 -154 -367 -4 -4 -33 57 -65 135 -165 400 -260 625
-276 657 -60 116 -234 192 -361 157z"/>
<path d="M23 819 c-8 -8 0 -44 29 -131 55 -162 77 -167 123 -27 15 43 28 79
30 79 2 0 15 -36 30 -79 27 -82 45 -107 69 -98 16 6 89 218 84 244 -5 26 -30
22 -39 -7 -4 -14 -18 -58 -30 -98 -12 -41 -25 -70 -29 -65 -4 4 -19 44 -34 88
-14 44 -30 86 -35 94 -18 28 -37 2 -66 -89 -16 -50 -32 -93 -35 -95 -3 -2 -21
41 -39 96 -18 54 -36 99 -40 99 -4 0 -12 -5 -18 -11z"/>
<path d="M743 818 c-19 -24 -94 -238 -88 -248 11 -17 24 -11 40 20 14 28 20
30 69 30 50 0 54 -2 66 -30 12 -29 33 -39 44 -21 5 8 -62 200 -85 243 -11 21
-32 23 -46 6z m54 -154 c-3 -3 -21 -4 -40 -2 l-35 3 21 55 20 54 20 -52 c11
-29 17 -55 14 -58z"/>
<path d="M1095 818 c-3 -8 -4 -68 -3 -134 2 -98 6 -119 18 -119 11 0 16 13 18
48 l3 47 79 0 79 0 3 -47 c2 -35 7 -48 18 -48 13 0 15 21 15 130 0 109 -2 130
-15 130 -11 0 -16 -15 -18 -62 l-3 -63 -79 0 -79 0 -3 62 c-3 59 -21 89 -33
56z"/>
<path d="M2037 824 c-14 -14 -7 -184 8 -214 33 -64 157 -63 190 1 22 41 17
214 -5 214 -12 0 -16 -20 -20 -98 -6 -108 -16 -127 -70 -127 -54 0 -65 19 -70
126 -5 89 -14 117 -33 98z"/>
<path d="M2304 817 c-2 -7 -3 -67 -2 -133 2 -98 6 -119 18 -119 12 0 16 18 20
82 l5 82 73 -60 c40 -33 77 -72 83 -85 5 -14 15 -24 22 -21 9 3 12 39 12 133
0 108 -2 129 -15 129 -12 0 -16 -18 -18 -88 l-3 -87 -27 25 c-15 14 -46 40
-69 58 -23 18 -49 47 -58 65 -17 34 -32 41 -41 19z"/>
<path d="M3423 811 c-50 -23 -73 -63 -73 -125 0 -112 150 -168 232 -85 23 22
29 36 26 61 l-3 33 -60 0 c-47 0 -60 -3 -60 -15 0 -10 14 -17 45 -20 l45 -5
-27 -27 c-35 -36 -86 -38 -125 -4 -23 20 -28 32 -28 69 0 54 23 84 71 93 18 3
47 1 64 -5 25 -8 32 -7 37 5 8 22 -7 33 -57 39 -33 4 -57 0 -87 -14z"/>
<path d="M3953 811 c-98 -45 -98 -188 0 -234 44 -21 80 -21 124 0 100 47 96
196 -7 237 -51 20 -65 20 -117 -3z m107 -36 c40 -21 56 -72 36 -119 -28 -66
-119 -74 -156 -13 -11 18 -20 41 -20 52 1 45 49 94 93 95 10 0 31 -7 47 -15z"/>
<path d="M4197 824 c-4 -4 -7 -51 -7 -105 0 -89 2 -100 24 -126 21 -24 31 -28
80 -28 47 0 60 4 83 27 25 25 27 35 31 120 3 101 -5 131 -32 109 -12 -10 -16
-34 -16 -102 0 -79 -2 -89 -22 -103 -29 -21 -61 -20 -87 2 -18 15 -21 30 -23
111 -3 87 -12 114 -31 95z"/>
<path d="M4456 814 c-3 -9 -6 -62 -6 -119 0 -112 5 -135 26 -135 11 0 14 19
14 85 0 47 2 85 5 85 15 0 149 -118 161 -142 28 -54 39 -29 42 98 1 65 -2 125
-7 133 -19 29 -31 -2 -31 -80 0 -43 -2 -79 -6 -79 -15 0 -147 117 -160 142
-16 31 -29 36 -38 12z"/>
<path d="M427 813 c-4 -3 -7 -60 -7 -125 l0 -118 105 0 c85 0 105 3 105 15 0
11 -18 15 -82 17 -81 3 -83 4 -83 28 0 24 3 25 60 28 79 3 91 8 75 27 -9 10
-32 15 -77 15 l-64 0 3 43 3 42 83 3 c64 2 82 6 82 17 0 12 -19 15 -98 15 -54
0 -102 -3 -105 -7z"/>
<path d="M850 806 c0 -10 13 -16 43 -18 l42 -3 3 -113 c2 -101 5 -113 20 -110
15 3 17 19 20 115 l3 112 42 3 c23 2 42 8 42 13 0 6 -44 11 -107 13 -90 2
-108 0 -108 -12z"/>
<path d="M1380 695 l0 -126 103 3 c124 4 138 22 20 26 l-83 3 0 29 0 30 71 0
c62 0 70 2 67 18 -3 14 -16 18 -71 20 l-67 3 0 44 0 44 80 3 c117 4 105 22
-17 26 l-103 3 0 -126z"/>
<path d="M1634 807 c-2 -7 -3 -65 -2 -128 2 -93 6 -114 18 -114 11 0 16 13 18
48 3 44 5 47 31 47 34 0 76 -31 97 -72 8 -16 21 -27 27 -25 18 6 9 48 -15 74
l-21 23 23 25 c32 34 33 91 1 116 -29 23 -168 28 -177 6z m140 -30 c12 -9 17
-23 14 -42 -3 -29 -5 -30 -60 -33 l-58 -3 0 46 0 45 43 0 c24 0 51 -6 61 -13z"/>
<path d="M2590 695 l0 -125 79 0 c70 0 83 3 110 25 62 53 64 143 5 195 -32 28
-40 30 -114 30 l-80 0 0 -125z m149 80 c16 -8 31 -22 35 -30 8 -21 8 -79 0
-100 -9 -24 -58 -45 -104 -45 l-40 0 0 95 0 95 40 0 c23 0 54 -7 69 -15z"/>
<path d="M2860 695 l0 -125 106 0 c80 0 105 3 102 13 -3 8 -32 13 -86 15 l-82
3 0 29 0 30 71 0 c62 0 70 2 67 18 -3 14 -16 18 -71 20 l-67 3 0 44 0 44 80 3
c117 4 105 22 -17 26 l-103 3 0 -126z"/>
<path d="M3120 690 c0 -104 3 -130 14 -130 17 0 26 22 26 66 0 31 3 34 28 34
29 0 83 -47 96 -83 3 -10 12 -17 19 -15 22 8 19 38 -6 71 l-25 33 24 21 c31
27 32 80 4 111 -18 19 -31 22 -100 22 l-80 0 0 -130z m144 84 c39 -38 11 -74
-56 -74 l-48 0 0 45 0 45 44 0 c27 0 51 -6 60 -16z"/>
<path d="M3652 693 c3 -106 6 -128 18 -128 11 0 16 13 18 48 3 44 5 47 31 47
28 0 82 -47 95 -83 3 -10 12 -17 19 -15 21 8 19 45 -6 73 l-23 28 23 23 c30
30 31 86 3 114 -17 17 -33 20 -100 20 l-81 0 3 -127z m142 81 c39 -38 11 -74
-56 -74 l-48 0 0 45 0 45 44 0 c27 0 51 -6 60 -16z"/>
<path d="M4744 807 c-2 -7 -3 -62 -2 -123 l3 -109 72 -3 c51 -2 81 2 102 13
80 41 81 179 1 220 -38 19 -168 21 -176 2z m146 -32 c59 -31 59 -129 -1 -160
-15 -8 -46 -15 -69 -15 l-40 0 0 95 0 95 40 0 c23 0 54 -7 70 -15z"/>
</g>
</svg>
